<mxfile host="app.diagrams.net" agent="Mozilla/5.0 (Windows NT 10.0; Win64; x64) AppleWebKit/537.36 (KHTML, like Gecko) Chrome/140.0.0.0 Safari/537.36 Edg/140.0.0.0" version="28.2.5">
  <diagram name="Страница — 1" id="89Jf2Clfn-oBXIjC1qWB">
    <mxGraphModel dx="1034" dy="666" grid="1" gridSize="10" guides="1" tooltips="1" connect="1" arrows="1" fold="1" page="1" pageScale="1" pageWidth="827" pageHeight="1169" math="0" shadow="0">
      <root>
        <mxCell id="0" />
        <mxCell id="1" parent="0" />
        <mxCell id="zdGxyU5Ulu9nrkZhif5i-5" style="edgeStyle=orthogonalEdgeStyle;rounded=0;orthogonalLoop=1;jettySize=auto;html=1;exitX=0.5;exitY=1;exitDx=0;exitDy=0;entryX=0.5;entryY=0;entryDx=0;entryDy=0;" edge="1" parent="1" source="zdGxyU5Ulu9nrkZhif5i-2" target="zdGxyU5Ulu9nrkZhif5i-4">
          <mxGeometry relative="1" as="geometry" />
        </mxCell>
        <mxCell id="zdGxyU5Ulu9nrkZhif5i-2" value="начало" style="ellipse;whiteSpace=wrap;html=1;" vertex="1" parent="1">
          <mxGeometry x="300" y="70" width="120" height="80" as="geometry" />
        </mxCell>
        <mxCell id="zdGxyU5Ulu9nrkZhif5i-7" style="edgeStyle=orthogonalEdgeStyle;rounded=0;orthogonalLoop=1;jettySize=auto;html=1;exitX=0.5;exitY=1;exitDx=0;exitDy=0;entryX=0.5;entryY=0;entryDx=0;entryDy=0;" edge="1" parent="1" source="zdGxyU5Ulu9nrkZhif5i-4" target="zdGxyU5Ulu9nrkZhif5i-6">
          <mxGeometry relative="1" as="geometry" />
        </mxCell>
        <mxCell id="zdGxyU5Ulu9nrkZhif5i-4" value="int cur_pid = getpid()" style="rounded=0;whiteSpace=wrap;html=1;" vertex="1" parent="1">
          <mxGeometry x="300" y="190" width="120" height="60" as="geometry" />
        </mxCell>
        <mxCell id="zdGxyU5Ulu9nrkZhif5i-9" style="edgeStyle=orthogonalEdgeStyle;rounded=0;orthogonalLoop=1;jettySize=auto;html=1;exitX=0.5;exitY=1;exitDx=0;exitDy=0;entryX=0.5;entryY=0;entryDx=0;entryDy=0;" edge="1" parent="1" source="zdGxyU5Ulu9nrkZhif5i-6" target="zdGxyU5Ulu9nrkZhif5i-8">
          <mxGeometry relative="1" as="geometry" />
        </mxCell>
        <mxCell id="zdGxyU5Ulu9nrkZhif5i-6" value="cur_pid" style="shape=parallelogram;perimeter=parallelogramPerimeter;whiteSpace=wrap;html=1;fixedSize=1;" vertex="1" parent="1">
          <mxGeometry x="300" y="280" width="120" height="60" as="geometry" />
        </mxCell>
        <mxCell id="zdGxyU5Ulu9nrkZhif5i-11" style="edgeStyle=orthogonalEdgeStyle;rounded=0;orthogonalLoop=1;jettySize=auto;html=1;exitX=0.5;exitY=1;exitDx=0;exitDy=0;entryX=0.5;entryY=0;entryDx=0;entryDy=0;" edge="1" parent="1" source="zdGxyU5Ulu9nrkZhif5i-8" target="zdGxyU5Ulu9nrkZhif5i-10">
          <mxGeometry relative="1" as="geometry" />
        </mxCell>
        <mxCell id="zdGxyU5Ulu9nrkZhif5i-8" value="&lt;div style=&quot;color: rgb(204, 204, 204); background-color: rgb(31, 31, 31); font-family: &amp;quot;Cascadia Code&amp;quot;, Consolas, &amp;quot;Courier New&amp;quot;, monospace; font-size: 14px; line-height: 19px; white-space: pre;&quot;&gt;&lt;span style=&quot;color: #dcdcaa;&quot;&gt;execl&lt;/span&gt;(&lt;span style=&quot;color: #ce9178;&quot;&gt;&quot;/bin/ls&quot;&lt;/span&gt;, &lt;span style=&quot;color: #ce9178;&quot;&gt;&quot;ls&quot;&lt;/span&gt;, &lt;span style=&quot;color: #ce9178;&quot;&gt;&quot;-l&quot;&lt;/span&gt;, &lt;span style=&quot;color: #569cd6;&quot;&gt;NULL&lt;/span&gt;);&lt;/div&gt;" style="rounded=0;whiteSpace=wrap;html=1;" vertex="1" parent="1">
          <mxGeometry x="200" y="400" width="320" height="60" as="geometry" />
        </mxCell>
        <mxCell id="zdGxyU5Ulu9nrkZhif5i-10" value="Конец" style="ellipse;whiteSpace=wrap;html=1;" vertex="1" parent="1">
          <mxGeometry x="300" y="490" width="120" height="80" as="geometry" />
        </mxCell>
      </root>
    </mxGraphModel>
  </diagram>
</mxfile>
